<mxfile host="app.diagrams.net" agent="Mozilla/5.0 (Macintosh; Intel Mac OS X 10_15_7) AppleWebKit/605.1.15 (KHTML, like Gecko) Version/18.3.1 Safari/605.1.15" version="26.2.4">
  <diagram name="Page-1" id="igxeiYiaEFQv3SpcLYLi">
    <mxGraphModel dx="978" dy="648" grid="1" gridSize="10" guides="1" tooltips="1" connect="1" arrows="1" fold="1" page="1" pageScale="1" pageWidth="827" pageHeight="1169" math="0" shadow="0">
      <root>
        <mxCell id="0" />
        <mxCell id="1" parent="0" />
        <mxCell id="O0fV-oLm9jX6M23wcXQI-9" value="&lt;b&gt;Approved&lt;/b&gt;&lt;div&gt;(Move Photo)&lt;/div&gt;" style="edgeStyle=orthogonalEdgeStyle;rounded=0;orthogonalLoop=1;jettySize=auto;html=1;" edge="1" parent="1" source="O0fV-oLm9jX6M23wcXQI-4" target="O0fV-oLm9jX6M23wcXQI-7">
          <mxGeometry x="-0.0035" relative="1" as="geometry">
            <mxPoint as="offset" />
          </mxGeometry>
        </mxCell>
        <mxCell id="O0fV-oLm9jX6M23wcXQI-15" style="edgeStyle=orthogonalEdgeStyle;rounded=0;orthogonalLoop=1;jettySize=auto;html=1;" edge="1" parent="1" source="O0fV-oLm9jX6M23wcXQI-4" target="O0fV-oLm9jX6M23wcXQI-13">
          <mxGeometry relative="1" as="geometry">
            <Array as="points">
              <mxPoint x="497.5" y="330" />
            </Array>
          </mxGeometry>
        </mxCell>
        <mxCell id="O0fV-oLm9jX6M23wcXQI-16" value="Update Photo&amp;nbsp;&lt;div&gt;Status / Breed&lt;/div&gt;" style="edgeLabel;html=1;align=center;verticalAlign=middle;resizable=0;points=[];" vertex="1" connectable="0" parent="O0fV-oLm9jX6M23wcXQI-15">
          <mxGeometry x="-0.6901" y="-1" relative="1" as="geometry">
            <mxPoint x="1" y="20" as="offset" />
          </mxGeometry>
        </mxCell>
        <mxCell id="O0fV-oLm9jX6M23wcXQI-20" value="Detect Dog&lt;div&gt;Breed&lt;/div&gt;" style="edgeStyle=orthogonalEdgeStyle;rounded=0;orthogonalLoop=1;jettySize=auto;html=1;startArrow=classic;startFill=1;" edge="1" parent="1" source="O0fV-oLm9jX6M23wcXQI-4" target="O0fV-oLm9jX6M23wcXQI-19">
          <mxGeometry relative="1" as="geometry">
            <Array as="points">
              <mxPoint x="575.5" y="100" />
              <mxPoint x="575.5" y="50" />
            </Array>
          </mxGeometry>
        </mxCell>
        <mxCell id="O0fV-oLm9jX6M23wcXQI-4" value="Photo Moderation / Breed Detection&amp;nbsp;" style="sketch=0;outlineConnect=0;fontColor=#232F3E;gradientColor=none;strokeColor=#ffffff;fillColor=#232F3E;dashed=0;verticalLabelPosition=middle;verticalAlign=bottom;align=center;html=1;whiteSpace=wrap;fontSize=10;fontStyle=1;spacing=3;shape=mxgraph.aws4.productIcon;prIcon=mxgraph.aws4.lambda;" vertex="1" parent="1">
          <mxGeometry x="467.5" y="80" width="60" height="120" as="geometry" />
        </mxCell>
        <mxCell id="O0fV-oLm9jX6M23wcXQI-10" value="Upload Dog&amp;nbsp;&lt;div&gt;Photo&lt;/div&gt;" style="edgeStyle=orthogonalEdgeStyle;rounded=0;orthogonalLoop=1;jettySize=auto;html=1;" edge="1" parent="1" source="O0fV-oLm9jX6M23wcXQI-5" target="O0fV-oLm9jX6M23wcXQI-6">
          <mxGeometry relative="1" as="geometry" />
        </mxCell>
        <mxCell id="O0fV-oLm9jX6M23wcXQI-14" style="edgeStyle=orthogonalEdgeStyle;rounded=0;orthogonalLoop=1;jettySize=auto;html=1;" edge="1" parent="1" source="O0fV-oLm9jX6M23wcXQI-5" target="O0fV-oLm9jX6M23wcXQI-13">
          <mxGeometry relative="1" as="geometry" />
        </mxCell>
        <mxCell id="O0fV-oLm9jX6M23wcXQI-5" value="API" style="sketch=0;outlineConnect=0;fontColor=#232F3E;gradientColor=none;strokeColor=#ffffff;fillColor=#232F3E;dashed=0;verticalLabelPosition=middle;verticalAlign=bottom;align=center;html=1;whiteSpace=wrap;fontSize=10;fontStyle=1;spacing=3;shape=mxgraph.aws4.productIcon;prIcon=mxgraph.aws4.lambda;" vertex="1" parent="1">
          <mxGeometry x="192.5" y="235" width="50" height="70" as="geometry" />
        </mxCell>
        <mxCell id="O0fV-oLm9jX6M23wcXQI-8" value="Put&amp;nbsp;&lt;div&gt;Triggers&lt;/div&gt;" style="edgeStyle=orthogonalEdgeStyle;rounded=0;orthogonalLoop=1;jettySize=auto;html=1;" edge="1" parent="1" source="O0fV-oLm9jX6M23wcXQI-6" target="O0fV-oLm9jX6M23wcXQI-4">
          <mxGeometry relative="1" as="geometry" />
        </mxCell>
        <mxCell id="O0fV-oLm9jX6M23wcXQI-6" value="Pending&lt;div&gt;&amp;nbsp;Dog Images&lt;/div&gt;" style="sketch=0;outlineConnect=0;fontColor=#232F3E;gradientColor=none;strokeColor=#ffffff;fillColor=#232F3E;dashed=0;verticalLabelPosition=middle;verticalAlign=bottom;align=center;html=1;whiteSpace=wrap;fontSize=10;fontStyle=1;spacing=3;shape=mxgraph.aws4.productIcon;prIcon=mxgraph.aws4.s3;" vertex="1" parent="1">
          <mxGeometry x="317.5" y="140" width="60" height="105" as="geometry" />
        </mxCell>
        <mxCell id="O0fV-oLm9jX6M23wcXQI-7" value="Dog Images" style="sketch=0;outlineConnect=0;fontColor=#232F3E;gradientColor=none;strokeColor=#ffffff;fillColor=#232F3E;dashed=0;verticalLabelPosition=middle;verticalAlign=bottom;align=center;html=1;whiteSpace=wrap;fontSize=10;fontStyle=1;spacing=3;shape=mxgraph.aws4.productIcon;prIcon=mxgraph.aws4.s3;" vertex="1" parent="1">
          <mxGeometry x="617.5" y="145" width="60" height="95" as="geometry" />
        </mxCell>
        <mxCell id="O0fV-oLm9jX6M23wcXQI-12" style="edgeStyle=orthogonalEdgeStyle;rounded=0;orthogonalLoop=1;jettySize=auto;html=1;" edge="1" parent="1" source="O0fV-oLm9jX6M23wcXQI-11" target="O0fV-oLm9jX6M23wcXQI-7">
          <mxGeometry relative="1" as="geometry" />
        </mxCell>
        <mxCell id="O0fV-oLm9jX6M23wcXQI-11" value="CDN" style="sketch=0;outlineConnect=0;fontColor=#232F3E;gradientColor=none;strokeColor=#ffffff;fillColor=#232F3E;dashed=0;verticalLabelPosition=middle;verticalAlign=bottom;align=center;html=1;whiteSpace=wrap;fontSize=10;fontStyle=1;spacing=3;shape=mxgraph.aws4.productIcon;prIcon=mxgraph.aws4.cloudfront;" vertex="1" parent="1">
          <mxGeometry x="727.5" y="153.25" width="60" height="78.5" as="geometry" />
        </mxCell>
        <mxCell id="O0fV-oLm9jX6M23wcXQI-13" value="Dogs Table" style="sketch=0;outlineConnect=0;fontColor=#232F3E;gradientColor=none;strokeColor=#ffffff;fillColor=#232F3E;dashed=0;verticalLabelPosition=middle;verticalAlign=bottom;align=center;html=1;whiteSpace=wrap;fontSize=10;fontStyle=1;spacing=3;shape=mxgraph.aws4.productIcon;prIcon=mxgraph.aws4.dynamodb;" vertex="1" parent="1">
          <mxGeometry x="317.5" y="290" width="60" height="80" as="geometry" />
        </mxCell>
        <mxCell id="O0fV-oLm9jX6M23wcXQI-21" style="edgeStyle=orthogonalEdgeStyle;rounded=0;orthogonalLoop=1;jettySize=auto;html=1;" edge="1" parent="1" source="O0fV-oLm9jX6M23wcXQI-17" target="O0fV-oLm9jX6M23wcXQI-24">
          <mxGeometry relative="1" as="geometry" />
        </mxCell>
        <mxCell id="O0fV-oLm9jX6M23wcXQI-23" value="Get JWT" style="edgeStyle=orthogonalEdgeStyle;rounded=0;orthogonalLoop=1;jettySize=auto;html=1;startArrow=classic;startFill=1;dashed=1;" edge="1" parent="1" source="O0fV-oLm9jX6M23wcXQI-17" target="O0fV-oLm9jX6M23wcXQI-22">
          <mxGeometry x="-0.0778" relative="1" as="geometry">
            <mxPoint as="offset" />
          </mxGeometry>
        </mxCell>
        <mxCell id="O0fV-oLm9jX6M23wcXQI-17" value="API /&amp;nbsp;&lt;div&gt;Browser User&lt;/div&gt;" style="shape=umlActor;verticalLabelPosition=bottom;verticalAlign=top;html=1;outlineConnect=0;" vertex="1" parent="1">
          <mxGeometry x="37.5" y="240" width="30" height="60" as="geometry" />
        </mxCell>
        <mxCell id="O0fV-oLm9jX6M23wcXQI-19" value="Amazon Rekognition" style="sketch=0;outlineConnect=0;fontColor=#232F3E;gradientColor=none;strokeColor=#ffffff;fillColor=#232F3E;dashed=0;verticalLabelPosition=middle;verticalAlign=bottom;align=center;html=1;whiteSpace=wrap;fontSize=10;fontStyle=1;spacing=3;shape=mxgraph.aws4.productIcon;prIcon=mxgraph.aws4.rekognition;" vertex="1" parent="1">
          <mxGeometry x="622.5" y="10" width="55" height="90" as="geometry" />
        </mxCell>
        <mxCell id="O0fV-oLm9jX6M23wcXQI-22" value="Amazon Cognito" style="sketch=0;outlineConnect=0;fontColor=#232F3E;gradientColor=none;strokeColor=#ffffff;fillColor=#232F3E;dashed=0;verticalLabelPosition=middle;verticalAlign=bottom;align=center;html=1;whiteSpace=wrap;fontSize=10;fontStyle=1;spacing=3;shape=mxgraph.aws4.productIcon;prIcon=mxgraph.aws4.cognito;" vertex="1" parent="1">
          <mxGeometry x="30" y="78.25" width="45" height="75" as="geometry" />
        </mxCell>
        <mxCell id="O0fV-oLm9jX6M23wcXQI-25" style="edgeStyle=orthogonalEdgeStyle;rounded=0;orthogonalLoop=1;jettySize=auto;html=1;" edge="1" parent="1" source="O0fV-oLm9jX6M23wcXQI-24" target="O0fV-oLm9jX6M23wcXQI-5">
          <mxGeometry relative="1" as="geometry" />
        </mxCell>
        <mxCell id="O0fV-oLm9jX6M23wcXQI-24" value="API Gateway" style="sketch=0;outlineConnect=0;fontColor=#232F3E;gradientColor=none;strokeColor=#ffffff;fillColor=#232F3E;dashed=0;verticalLabelPosition=middle;verticalAlign=bottom;align=center;html=1;whiteSpace=wrap;fontSize=10;fontStyle=1;spacing=3;shape=mxgraph.aws4.productIcon;prIcon=mxgraph.aws4.api_gateway;" vertex="1" parent="1">
          <mxGeometry x="112.5" y="231.25" width="50" height="77.5" as="geometry" />
        </mxCell>
      </root>
    </mxGraphModel>
  </diagram>
</mxfile>
